<svg aria-hidden="true" style="position: absolute; width: 0; height: 0; overflow: hidden;" version="1.1" xmlns="http://www.w3.org/2000/svg" xmlns:xlink="http://www.w3.org/1999/xlink">
<defs>
<symbol id="icon-UserCircle" viewBox="0 0 32 32">
<path  d="M16 5c-6.075 0-11 4.925-11 11s4.925 11 11 11c6.075 0 11-4.925 11-11s-4.925-11-11-11zM3 16c0-7.18 5.82-13 13-13s13 5.82 13 13c0 7.18-5.82 13-13 13s-13-5.82-13-13z"></path>
<path  d="M16 11c-2.209 0-4 1.791-4 4s1.791 4 4 4 4-1.791 4-4c0-2.209-1.791-4-4-4zM10 15c0-3.314 2.686-6 6-6s6 2.686 6 6c0 3.314-2.686 6-6 6s-6-2.686-6-6z"></path>
<path  d="M16 21c-1.477 0-2.926 0.408-4.185 1.181s-2.28 1.879-2.948 3.197c-0.25 0.492-0.852 0.689-1.344 0.439s-0.689-0.852-0.439-1.344c0.836-1.647 2.112-3.030 3.686-3.996s3.385-1.477 5.231-1.477 3.657 0.511 5.231 1.477c1.574 0.966 2.849 2.349 3.686 3.996 0.25 0.492 0.053 1.094-0.439 1.344s-1.094 0.053-1.344-0.439c-0.669-1.317-1.689-2.424-2.948-3.197s-2.707-1.181-4.185-1.181z"></path>
</symbol>
<symbol id="icon-color-theme" viewBox="0 0 32 32">
<path   d="M16 10.667c-0.354 0-0.693 0.14-0.943 0.391s-0.39 0.589-0.39 0.943 0.14 0.693 0.39 0.943c0.25 0.25 0.589 0.391 0.943 0.391 0.707 0 1.386 0.281 1.886 0.781s0.781 1.178 0.781 1.886c0 0.707-0.281 1.386-0.781 1.886s-1.178 0.781-1.886 0.781c-0.354 0-0.693 0.14-0.943 0.391s-0.39 0.589-0.39 0.943 0.14 0.693 0.39 0.943c0.25 0.25 0.589 0.391 0.943 0.391 1.414 0 2.771-0.562 3.771-1.562s1.562-2.357 1.562-3.771c0-1.414-0.562-2.771-1.562-3.771s-2.357-1.562-3.771-1.562v0zM28.947 15.053l-3.133-3.053v-4.48c0-0.354-0.14-0.693-0.391-0.943s-0.589-0.391-0.943-0.391h-4.413l-3.12-3.133c-0.124-0.125-0.271-0.224-0.434-0.292s-0.337-0.103-0.513-0.103-0.35 0.035-0.513 0.103c-0.163 0.068-0.31 0.167-0.434 0.292l-3.053 3.133h-4.48c-0.354 0-0.693 0.14-0.943 0.391s-0.391 0.589-0.391 0.943v4.48l-3.133 3.053c-0.125 0.124-0.224 0.271-0.292 0.434s-0.103 0.337-0.103 0.513c0 0.176 0.035 0.35 0.103 0.513s0.167 0.31 0.292 0.434l3.133 3.12v4.413c0 0.354 0.14 0.693 0.391 0.943s0.589 0.391 0.943 0.391h4.48l3.12 3.133c0.124 0.125 0.271 0.224 0.434 0.292s0.337 0.103 0.513 0.103 0.35-0.035 0.513-0.103c0.163-0.068 0.31-0.167 0.434-0.292l3.12-3.133h4.413c0.354 0 0.693-0.141 0.943-0.391s0.39-0.589 0.39-0.943v-4.413l3.133-3.12c0.121-0.128 0.215-0.279 0.277-0.444s0.091-0.34 0.085-0.516c-0.006-0.176-0.047-0.349-0.121-0.509s-0.178-0.304-0.307-0.424zM23.547 18.573c-0.126 0.123-0.226 0.271-0.295 0.433s-0.104 0.337-0.105 0.513v3.627h-3.627c-0.176 0.001-0.351 0.036-0.513 0.105s-0.31 0.169-0.433 0.295l-2.573 2.573-2.573-2.573c-0.123-0.126-0.271-0.226-0.433-0.295s-0.337-0.104-0.513-0.105h-3.627v-3.627c-0.001-0.176-0.036-0.351-0.105-0.513s-0.169-0.31-0.295-0.433l-2.573-2.573 2.573-2.573c0.126-0.123 0.226-0.271 0.295-0.433s0.104-0.337 0.105-0.513v-3.627h3.627c0.176-0.001 0.351-0.037 0.513-0.105s0.31-0.169 0.433-0.295l2.573-2.573 2.573 2.573c0.123 0.126 0.271 0.226 0.433 0.295s0.337 0.104 0.513 0.105h3.627v3.627c0.001 0.176 0.036 0.351 0.105 0.513s0.169 0.31 0.295 0.433l2.573 2.573-2.573 2.573z"></path>
</symbol>
<symbol id="icon-right-arrow" viewBox="0 0 32 32">
<path d="M20.72 15.053l-7.547-7.533c-0.124-0.125-0.271-0.224-0.434-0.292s-0.337-0.103-0.513-0.103c-0.176 0-0.35 0.035-0.513 0.103s-0.31 0.167-0.434 0.292c-0.248 0.25-0.388 0.588-0.388 0.94s0.139 0.69 0.388 0.94l6.6 6.667-6.6 6.6c-0.248 0.25-0.388 0.588-0.388 0.94s0.139 0.69 0.388 0.94c0.123 0.126 0.271 0.226 0.433 0.295s0.337 0.104 0.513 0.105c0.176-0.001 0.351-0.036 0.513-0.105s0.31-0.169 0.433-0.295l7.547-7.533c0.135-0.125 0.243-0.276 0.317-0.445s0.112-0.351 0.112-0.535-0.038-0.366-0.112-0.535c-0.074-0.169-0.182-0.32-0.317-0.445z"></path>
</symbol>
<symbol id="icon-list-format" viewBox="0 0 32 32">
<path d="M4.947 21.72c-0.127-0.121-0.276-0.217-0.44-0.28-0.325-0.133-0.689-0.133-1.013 0-0.164 0.063-0.313 0.159-0.44 0.28-0.121 0.127-0.217 0.276-0.28 0.44-0.102 0.243-0.13 0.51-0.080 0.769s0.175 0.497 0.36 0.684c0.13 0.118 0.278 0.213 0.44 0.28 0.16 0.071 0.332 0.107 0.507 0.107s0.347-0.036 0.507-0.107c0.162-0.067 0.31-0.162 0.44-0.28 0.185-0.187 0.31-0.426 0.36-0.684s0.022-0.526-0.080-0.769c-0.063-0.164-0.159-0.313-0.28-0.44zM9.333 10.667h18.667c0.354 0 0.693-0.14 0.943-0.391s0.391-0.589 0.391-0.943c0-0.354-0.141-0.693-0.391-0.943s-0.589-0.391-0.943-0.391h-18.667c-0.354 0-0.693 0.14-0.943 0.391s-0.391 0.589-0.391 0.943c0 0.354 0.14 0.693 0.391 0.943s0.589 0.391 0.943 0.391zM4.947 15.053c-0.188-0.185-0.426-0.31-0.684-0.36s-0.526-0.022-0.769 0.080c-0.162 0.067-0.31 0.162-0.44 0.28-0.121 0.127-0.217 0.276-0.28 0.44-0.071 0.16-0.107 0.332-0.107 0.507s0.036 0.347 0.107 0.507c0.068 0.162 0.162 0.31 0.28 0.44 0.13 0.118 0.278 0.213 0.44 0.28 0.16 0.071 0.332 0.107 0.507 0.107s0.347-0.036 0.507-0.107c0.162-0.067 0.31-0.162 0.44-0.28 0.118-0.13 0.212-0.278 0.28-0.44 0.071-0.16 0.107-0.332 0.107-0.507s-0.036-0.347-0.107-0.507c-0.063-0.164-0.159-0.313-0.28-0.44zM28 14.667h-18.667c-0.354 0-0.693 0.141-0.943 0.391s-0.391 0.589-0.391 0.943c0 0.354 0.14 0.693 0.391 0.943s0.589 0.391 0.943 0.391h18.667c0.354 0 0.693-0.141 0.943-0.391s0.391-0.589 0.391-0.943c0-0.354-0.141-0.693-0.391-0.943s-0.589-0.391-0.943-0.391zM4.947 8.387c-0.127-0.121-0.276-0.217-0.44-0.28-0.243-0.102-0.51-0.13-0.769-0.080s-0.497 0.175-0.684 0.36c-0.118 0.13-0.212 0.278-0.28 0.44-0.071 0.16-0.107 0.332-0.107 0.507s0.036 0.347 0.107 0.507c0.068 0.162 0.162 0.31 0.28 0.44 0.13 0.118 0.278 0.212 0.44 0.28 0.243 0.102 0.51 0.13 0.769 0.080s0.497-0.175 0.684-0.36c0.118-0.13 0.212-0.278 0.28-0.44 0.071-0.16 0.107-0.332 0.107-0.507s-0.036-0.347-0.107-0.507c-0.068-0.162-0.162-0.31-0.28-0.44zM28 21.333h-18.667c-0.354 0-0.693 0.141-0.943 0.391s-0.391 0.589-0.391 0.943c0 0.354 0.14 0.693 0.391 0.943s0.589 0.391 0.943 0.391h18.667c0.354 0 0.693-0.141 0.943-0.391s0.391-0.589 0.391-0.943c0-0.354-0.141-0.693-0.391-0.943s-0.589-0.391-0.943-0.391z"></path>
</symbol>
<symbol id="icon-grid" viewBox="0 0 32 32">
<path  d="M28 2.667h-24c-0.354 0-0.693 0.14-0.943 0.391s-0.391 0.589-0.391 0.943v24c0 0.354 0.14 0.693 0.391 0.943s0.589 0.391 0.943 0.391h24c0.354 0 0.693-0.141 0.943-0.391s0.391-0.589 0.391-0.943v-24c0-0.354-0.141-0.693-0.391-0.943s-0.589-0.391-0.943-0.391zM10.667 26.667h-5.333v-5.333h5.333v5.333zM10.667 18.667h-5.333v-5.333h5.333v5.333zM10.667 10.667h-5.333v-5.333h5.333v5.333zM18.667 26.667h-5.333v-5.333h5.333v5.333zM18.667 18.667h-5.333v-5.333h5.333v5.333zM18.667 10.667h-5.333v-5.333h5.333v5.333zM26.667 26.667h-5.333v-5.333h5.333v5.333zM26.667 18.667h-5.333v-5.333h5.333v5.333zM26.667 10.667h-5.333v-5.333h5.333v5.333z"></path>
</symbol>
<symbol id="icon-Close" viewBox="0 0 32 32">
<path d="M17.88 16l8.4-8.387c0.251-0.251 0.392-0.592 0.392-0.947s-0.141-0.696-0.392-0.947c-0.251-0.251-0.592-0.392-0.947-0.392s-0.696 0.141-0.947 0.392l-8.387 8.4-8.387-8.4c-0.251-0.251-0.592-0.392-0.947-0.392s-0.696 0.141-0.947 0.392c-0.251 0.251-0.392 0.592-0.392 0.947s0.141 0.696 0.392 0.947l8.4 8.387-8.4 8.387c-0.125 0.124-0.224 0.271-0.292 0.434s-0.103 0.337-0.103 0.513c0 0.176 0.035 0.35 0.103 0.513s0.167 0.31 0.292 0.434c0.124 0.125 0.271 0.224 0.434 0.292s0.337 0.103 0.513 0.103 0.35-0.035 0.513-0.103c0.162-0.068 0.31-0.167 0.434-0.292l8.387-8.4 8.387 8.4c0.124 0.125 0.271 0.224 0.434 0.292s0.337 0.103 0.513 0.103 0.35-0.035 0.513-0.103c0.162-0.068 0.31-0.167 0.434-0.292 0.125-0.124 0.224-0.271 0.292-0.434s0.103-0.337 0.103-0.513c0-0.176-0.035-0.35-0.103-0.513s-0.167-0.31-0.292-0.434l-8.4-8.387z"></path>
</symbol>
<symbol id="icon-heart" viewBox="0 0 32 32">
<path  d="M26.88 6.667c-1.413-1.417-3.287-2.282-5.282-2.438s-3.981 0.406-5.598 1.585c-1.696-1.262-3.808-1.834-5.91-1.601s-4.037 1.253-5.416 2.855-2.1 3.668-2.018 5.781c0.083 2.113 0.963 4.115 2.463 5.605l8.28 8.293c0.693 0.682 1.627 1.065 2.6 1.065s1.907-0.382 2.6-1.065l8.28-8.293c1.557-1.566 2.431-3.685 2.431-5.893s-0.874-4.327-2.431-5.893v0zM25 16.613l-8.28 8.28c-0.094 0.095-0.206 0.171-0.33 0.222s-0.256 0.078-0.39 0.078c-0.134 0-0.267-0.027-0.39-0.078s-0.236-0.127-0.33-0.222l-8.28-8.32c-1.046-1.069-1.631-2.505-1.631-4s0.586-2.931 1.631-4c1.066-1.052 2.503-1.642 4-1.642s2.934 0.59 4 1.642c0.124 0.125 0.271 0.224 0.434 0.292s0.337 0.103 0.513 0.103c0.176 0 0.35-0.035 0.513-0.103s0.31-0.167 0.434-0.292c1.066-1.052 2.503-1.642 4-1.642s2.934 0.59 4 1.642c1.060 1.055 1.665 2.483 1.685 3.978s-0.546 2.939-1.578 4.022v0.040z"></path>
</symbol>
<symbol id="icon-ApproveTick" viewBox="0 0 32 32">
<path d="M24.947 9.613c-0.124-0.125-0.271-0.224-0.434-0.292s-0.337-0.103-0.513-0.103c-0.176 0-0.35 0.035-0.513 0.103s-0.31 0.167-0.434 0.292l-9.933 9.947-4.173-4.187c-0.129-0.124-0.281-0.222-0.447-0.288s-0.344-0.098-0.523-0.095c-0.179 0.003-0.355 0.041-0.52 0.113s-0.313 0.174-0.437 0.303c-0.124 0.129-0.222 0.281-0.288 0.447s-0.098 0.344-0.095 0.523 0.041 0.355 0.113 0.52c0.071 0.164 0.174 0.313 0.303 0.437l5.12 5.12c0.124 0.125 0.271 0.224 0.434 0.292s0.337 0.103 0.513 0.103 0.35-0.035 0.513-0.103c0.163-0.068 0.31-0.167 0.434-0.292l10.88-10.88c0.135-0.125 0.243-0.276 0.317-0.445s0.112-0.351 0.112-0.535c0-0.184-0.038-0.366-0.112-0.535s-0.182-0.32-0.317-0.445z"></path>
</symbol>
<symbol id="icon-Plus" viewBox="0 0 32 32">
<path d="M25.333 14.667h-8v-8c0-0.354-0.14-0.693-0.39-0.943s-0.589-0.391-0.943-0.391c-0.354 0-0.693 0.14-0.943 0.391s-0.39 0.589-0.39 0.943v8h-8c-0.354 0-0.693 0.14-0.943 0.39s-0.391 0.589-0.391 0.943c0 0.354 0.14 0.693 0.391 0.943s0.589 0.39 0.943 0.39h8v8c0 0.354 0.14 0.693 0.39 0.943s0.589 0.39 0.943 0.39c0.354 0 0.693-0.14 0.943-0.39s0.39-0.589 0.39-0.943v-8h8c0.354 0 0.693-0.14 0.943-0.39s0.39-0.589 0.39-0.943c0-0.354-0.14-0.693-0.39-0.943s-0.589-0.39-0.943-0.39z"></path>
</symbol>
<symbol id="icon-Research" viewBox="0 0 32 32">
<path  d="M28.093 22.44l-2.76-2.827c-0.594-0.564-1.343-0.938-2.15-1.074s-1.638-0.026-2.383 0.314l-1.2-1.2c1.414-1.889 2.060-4.245 1.807-6.591s-1.384-4.51-3.168-6.056c-1.784-1.545-4.087-2.358-6.445-2.273s-4.597 1.059-6.266 2.728-2.643 3.908-2.728 6.266c-0.084 2.358 0.728 4.661 2.273 6.445s3.709 2.916 6.055 3.168c2.346 0.252 4.701-0.393 6.591-1.807l1.187 1.187c-0.38 0.746-0.516 1.593-0.389 2.421s0.51 1.595 1.096 2.193l2.827 2.827c0.75 0.749 1.767 1.17 2.827 1.17s2.077-0.421 2.827-1.17c0.381-0.372 0.684-0.817 0.89-1.308s0.313-1.019 0.313-1.552c0-0.533-0.107-1.060-0.313-1.551s-0.509-0.936-0.89-1.309zM16.787 16.787c-0.933 0.931-2.121 1.564-3.414 1.82s-2.632 0.123-3.85-0.382-2.257-1.36-2.989-2.456c-0.732-1.096-1.122-2.384-1.122-3.702s0.391-2.606 1.122-3.702c0.732-1.096 1.772-1.95 2.989-2.456s2.557-0.638 3.849-0.382c1.293 0.256 2.481 0.889 3.414 1.82 0.621 0.619 1.113 1.355 1.45 2.165s0.509 1.678 0.509 2.555-0.173 1.745-0.509 2.555c-0.336 0.81-0.829 1.546-1.45 2.165zM26.213 26.213c-0.124 0.125-0.271 0.224-0.434 0.292s-0.337 0.103-0.513 0.103-0.35-0.035-0.513-0.103c-0.163-0.068-0.31-0.167-0.434-0.292l-2.827-2.827c-0.125-0.124-0.224-0.271-0.292-0.434s-0.102-0.337-0.102-0.513c0-0.176 0.035-0.35 0.102-0.513s0.167-0.31 0.292-0.434c0.124-0.125 0.271-0.224 0.434-0.292s0.337-0.102 0.513-0.102 0.35 0.035 0.513 0.102c0.163 0.068 0.31 0.167 0.434 0.292l2.827 2.827c0.125 0.124 0.224 0.271 0.292 0.434s0.103 0.337 0.103 0.513-0.035 0.35-0.103 0.513c-0.068 0.163-0.167 0.31-0.292 0.434z"></path>
</symbol>
<symbol id="icon-Logout" viewBox="0 0 32 32">
<path  d="M5.333 16c0 0.354 0.14 0.693 0.391 0.943s0.589 0.391 0.943 0.391h10.12l-3.067 3.053c-0.125 0.124-0.224 0.271-0.292 0.434s-0.103 0.337-0.103 0.513c0 0.176 0.035 0.35 0.103 0.513s0.167 0.31 0.292 0.434c0.124 0.125 0.271 0.224 0.434 0.292s0.337 0.103 0.513 0.103c0.176 0 0.35-0.035 0.513-0.103s0.31-0.167 0.434-0.292l5.333-5.333c0.121-0.127 0.216-0.276 0.28-0.44 0.133-0.325 0.133-0.689 0-1.013-0.064-0.164-0.159-0.313-0.28-0.44l-5.333-5.333c-0.124-0.124-0.272-0.223-0.434-0.29s-0.336-0.102-0.512-0.102c-0.176 0-0.35 0.035-0.512 0.102s-0.31 0.166-0.434 0.29c-0.124 0.124-0.223 0.272-0.29 0.434s-0.102 0.336-0.102 0.512 0.035 0.35 0.102 0.512c0.067 0.162 0.166 0.31 0.29 0.434l3.067 3.053h-10.12c-0.354 0-0.693 0.14-0.943 0.391s-0.391 0.589-0.391 0.943v0zM22.667 2.667h-13.333c-1.061 0-2.078 0.421-2.828 1.172s-1.172 1.768-1.172 2.828v4c0 0.354 0.14 0.693 0.391 0.943s0.589 0.391 0.943 0.391c0.354 0 0.693-0.14 0.943-0.391s0.391-0.589 0.391-0.943v-4c0-0.354 0.14-0.693 0.391-0.943s0.589-0.391 0.943-0.391h13.333c0.354 0 0.693 0.14 0.943 0.391s0.391 0.589 0.391 0.943v18.667c0 0.354-0.14 0.693-0.391 0.943s-0.589 0.391-0.943 0.391h-13.333c-0.354 0-0.693-0.14-0.943-0.391s-0.391-0.589-0.391-0.943v-4c0-0.354-0.14-0.693-0.391-0.943s-0.589-0.391-0.943-0.391c-0.354 0-0.693 0.14-0.943 0.391s-0.391 0.589-0.391 0.943v4c0 1.061 0.421 2.078 1.172 2.828s1.768 1.172 2.828 1.172h13.333c1.061 0 2.078-0.421 2.828-1.172s1.172-1.768 1.172-2.828v-18.667c0-1.061-0.421-2.078-1.172-2.828s-1.768-1.172-2.828-1.172z"></path>
</symbol>
<symbol id="icon-House" viewBox="0 0 32 32">
<path  d="M26.667 10.667l-8-7.013c-0.733-0.656-1.683-1.019-2.667-1.019s-1.933 0.363-2.667 1.019l-8 7.013c-0.423 0.379-0.761 0.843-0.991 1.363s-0.346 1.082-0.342 1.65v11.653c0 1.061 0.421 2.078 1.172 2.828s1.768 1.172 2.828 1.172h16c1.061 0 2.078-0.421 2.828-1.172s1.172-1.768 1.172-2.828v-11.667c0.003-0.566-0.115-1.126-0.345-1.643s-0.567-0.98-0.989-1.357v0zM18.667 26.667h-5.333v-6.667c0-0.354 0.14-0.693 0.391-0.943s0.589-0.391 0.943-0.391h2.667c0.354 0 0.693 0.14 0.943 0.391s0.391 0.589 0.391 0.943v6.667zM25.333 25.333c0 0.354-0.14 0.693-0.391 0.943s-0.589 0.391-0.943 0.391h-2.667v-6.667c0-1.061-0.421-2.078-1.172-2.828s-1.768-1.172-2.828-1.172h-2.667c-1.061 0-2.078 0.421-2.828 1.172s-1.172 1.768-1.172 2.828v6.667h-2.667c-0.354 0-0.693-0.14-0.943-0.391s-0.391-0.589-0.391-0.943v-11.667c0-0.189 0.041-0.376 0.119-0.549s0.192-0.326 0.334-0.451l8-7c0.243-0.214 0.556-0.332 0.88-0.332s0.637 0.118 0.88 0.332l8 7c0.142 0.125 0.256 0.279 0.334 0.451s0.119 0.36 0.119 0.549v11.667z"></path>
</symbol>
<symbol id="icon-camera-reel" viewBox="0 0 32 32">
<path  d="M28 2.667c-0.354 0-0.693 0.14-0.943 0.391s-0.391 0.589-0.391 0.943v2.667h-2.667v-2.667c0-0.354-0.14-0.693-0.391-0.943s-0.589-0.391-0.943-0.391c-0.354 0-0.693 0.14-0.943 0.391s-0.391 0.589-0.391 0.943v1.333h-10.667v-1.333c0-0.354-0.14-0.693-0.391-0.943s-0.589-0.391-0.943-0.391c-0.354 0-0.693 0.14-0.943 0.391s-0.391 0.589-0.391 0.943v2.667h-2.667v-2.667c0-0.354-0.14-0.693-0.391-0.943s-0.589-0.391-0.943-0.391c-0.354 0-0.693 0.14-0.943 0.391s-0.391 0.589-0.391 0.943v24c0 0.354 0.14 0.693 0.391 0.943s0.589 0.391 0.943 0.391c0.354 0 0.693-0.14 0.943-0.391s0.391-0.589 0.391-0.943v-2.667h2.667v2.667c0 0.354 0.141 0.693 0.391 0.943s0.589 0.391 0.943 0.391c0.354 0 0.693-0.14 0.943-0.391s0.391-0.589 0.391-0.943v-1.333h10.667v1.333c0 0.354 0.14 0.693 0.391 0.943s0.589 0.391 0.943 0.391c0.354 0 0.693-0.14 0.943-0.391s0.391-0.589 0.391-0.943v-2.667h2.667v2.667c0 0.354 0.14 0.693 0.391 0.943s0.589 0.391 0.943 0.391c0.354 0 0.693-0.14 0.943-0.391s0.391-0.589 0.391-0.943v-24c0-0.354-0.14-0.693-0.391-0.943s-0.589-0.391-0.943-0.391v0zM8 22.667h-2.667v-2.667h2.667v2.667zM8 17.333h-2.667v-2.667h2.667v2.667zM8 12h-2.667v-2.667h2.667v2.667zM21.333 24h-10.667v-6.667h10.667v6.667zM21.333 14.667h-10.667v-6.667h10.667v6.667zM26.667 22.667h-2.667v-2.667h2.667v2.667zM26.667 17.333h-2.667v-2.667h2.667v2.667zM26.667 12h-2.667v-2.667h2.667v2.667z"></path>
</symbol>
<symbol id="icon-eye" viewBox="0 0 35 32">
<path  d="M31.967 15.467c-2.946-6.253-8.488-10.133-14.467-10.133s-11.521 3.88-14.467 10.133c-0.080 0.168-0.122 0.35-0.122 0.533s0.041 0.365 0.122 0.533c2.946 6.253 8.488 10.133 14.467 10.133s11.521-3.88 14.467-10.133c0.080-0.168 0.122-0.35 0.122-0.533s-0.041-0.365-0.122-0.533v0zM17.5 24c-4.623 0-8.998-3.053-11.521-8 2.523-4.947 6.898-8 11.521-8s8.998 3.053 11.521 8c-2.523 4.947-6.898 8-11.521 8zM17.5 10.667c-1.154 0-2.281 0.313-3.241 0.899s-1.707 1.419-2.149 2.393c-0.441 0.975-0.557 2.047-0.332 3.082s0.781 1.985 1.596 2.731c0.816 0.746 1.855 1.254 2.987 1.46s2.305 0.1 3.37-0.303c1.066-0.404 1.977-1.087 2.618-1.964s0.983-1.908 0.983-2.963c0-1.415-0.615-2.771-1.709-3.771s-2.578-1.562-4.125-1.562v0zM17.5 18.667c-0.577 0-1.141-0.156-1.62-0.449s-0.854-0.709-1.074-1.197c-0.221-0.487-0.278-1.023-0.166-1.541s0.39-0.992 0.798-1.365 0.928-0.627 1.493-0.73c0.566-0.103 1.152-0.050 1.685 0.152s0.988 0.544 1.309 0.982c0.32 0.438 0.491 0.954 0.491 1.482 0 0.707-0.307 1.385-0.854 1.886s-1.289 0.781-2.062 0.781z"></path>
</symbol>
<symbol id="icon-eye-closed" viewBox="0 0 32 32">
<path  d="M29.333 16l0.887 0.461c0.15-0.289 0.15-0.633 0-0.922l-0.887 0.461zM14.667 6.744v0zM25.913 19.121c-0.363 0.417-0.319 1.048 0.097 1.411s1.048 0.319 1.411-0.097l-1.508-1.314zM13.102 6.008c-0.537 0.128-0.869 0.667-0.741 1.205s0.667 0.869 1.204 0.741l-0.464-1.946zM16 11c-0.552 0-1 0.448-1 1s0.448 1 1 1v-2zM17.333 12.228v0zM19.772 14.667v0zM19 16c0 0.552 0.448 1 1 1s1-0.448 1-1h-2zM4.707 3.293c-0.391-0.391-1.024-0.391-1.414 0s-0.391 1.024 0 1.414l1.414-1.414zM27.293 28.707c0.391 0.391 1.024 0.391 1.414 0s0.391-1.024 0-1.414l-1.414 1.414zM16 21c0.552 0 1-0.448 1-1s-0.448-1-1-1v2zM14.667 19.772v0zM12.228 17.333v0zM13.042 16.501c-0.091-0.545-0.607-0.912-1.152-0.821s-0.912 0.607-0.821 1.152l1.972-0.331zM2.667 16l-0.887-0.461c-0.15 0.289-0.15 0.633 0 0.922l0.887-0.461zM4.425 13.333v0zM6.275 12.667c0.368-0.412 0.333-1.044-0.078-1.412s-1.044-0.333-1.412 0.078l1.49 1.334zM17.45 26.249c0.549-0.064 0.941-0.561 0.877-1.109s-0.561-0.941-1.109-0.877l0.233 1.986zM16 7.667c3.858 0 6.949 2.123 9.132 4.364 1.084 1.113 1.918 2.229 2.481 3.068 0.281 0.418 0.492 0.765 0.632 1.005 0.070 0.12 0.122 0.212 0.155 0.273 0.017 0.031 0.029 0.053 0.037 0.067 0.004 0.007 0.007 0.012 0.008 0.015 0.001 0.001 0.001 0.002 0.001 0.003s0 0 0 0-0-0-0-0-0-0.001 0.887-0.461 0.887-0.461 0.887-0.462-0-0.001-0.001-0.001-0.001-0.002-0.001-0.003-0.002-0.005-0.004-0.008-0.008-0.015-0.013-0.025c-0.011-0.021-0.027-0.051-0.048-0.089-0.041-0.076-0.102-0.183-0.181-0.319-0.158-0.271-0.392-0.653-0.698-1.11-0.612-0.911-1.52-2.129-2.709-3.349-2.362-2.425-5.938-4.969-10.565-4.969v2zM14.783 7.737c0.396-0.046 0.801-0.071 1.217-0.071v-2c-0.494 0-0.978 0.029-1.45 0.084l0.233 1.986zM29.333 16c-0.887-0.461-0.887-0.461-0.887-0.461s0-0 0-0 0-0 0-0 0-0 0-0-0 0.001-0.001 0.002-0.003 0.006-0.006 0.011c-0.005 0.010-0.015 0.027-0.027 0.051-0.025 0.046-0.065 0.117-0.117 0.209-0.106 0.184-0.267 0.454-0.481 0.785-0.429 0.663-1.067 1.568-1.902 2.526l1.508 1.314c0.91-1.045 1.605-2.029 2.073-2.754 0.235-0.363 0.413-0.662 0.535-0.874 0.061-0.106 0.107-0.189 0.139-0.248 0.016-0.029 0.028-0.052 0.037-0.069 0.004-0.008 0.008-0.015 0.010-0.020 0.001-0.002 0.002-0.005 0.003-0.006s0.001-0.001 0.001-0.002 0-0.001 0-0.001 0-0 0-0 0-0-0.887-0.461zM13.565 7.953c0.396-0.094 0.802-0.167 1.218-0.216l-0.233-1.986c-0.496 0.058-0.979 0.145-1.449 0.257l0.464 1.946zM16 13c0.352 0 0.689 0.060 1 0.17l0.666-1.886c-0.523-0.185-1.084-0.285-1.667-0.285v2zM17 13.17c0.852 0.301 1.528 0.978 1.829 1.829l1.886-0.666c-0.502-1.421-1.627-2.546-3.049-3.049l-0.666 1.886zM18.83 15c0.11 0.312 0.17 0.648 0.17 1h2c0-0.583-0.1-1.144-0.285-1.667l-1.886 0.666zM3.293 4.707l24 24 1.414-1.414-24-24-1.414 1.414zM16 19c-0.352 0-0.689-0.060-1-0.17l-0.666 1.886c0.523 0.185 1.084 0.285 1.667 0.285v-2zM15 18.83c-0.852-0.301-1.528-0.978-1.829-1.829l-1.886 0.666c0.502 1.421 1.627 2.546 3.049 3.049l0.666-1.886zM13.17 17c-0.057-0.16-0.1-0.327-0.129-0.499l-1.972 0.331c0.048 0.287 0.121 0.566 0.216 0.834l1.886-0.666zM16 24.333c-3.858 0-6.949-2.123-9.132-4.364-1.084-1.113-1.918-2.229-2.481-3.068-0.281-0.418-0.492-0.765-0.632-1.005-0.070-0.12-0.122-0.212-0.155-0.273-0.017-0.031-0.029-0.053-0.037-0.067-0.004-0.007-0.006-0.012-0.008-0.015-0.001-0.001-0.001-0.002-0.001-0.003s-0-0 0-0 0 0 0 0 0 0.001-0.887 0.461-0.887 0.461-0.887 0.462 0 0.001 0 0.001 0.001 0.002 0.001 0.003 0.002 0.005 0.004 0.008 0.008 0.015 0.013 0.025c0.011 0.021 0.027 0.051 0.048 0.089 0.042 0.076 0.102 0.183 0.181 0.319 0.158 0.271 0.392 0.653 0.698 1.11 0.612 0.911 1.52 2.129 2.709 3.349 2.362 2.425 5.938 4.969 10.565 4.969v-2zM2.667 16c0.887 0.461 0.887 0.461 0.887 0.461s-0 0-0 0-0 0-0 0-0 0-0 0 0-0 0-0.001 0.002-0.003 0.003-0.007 0.009-0.017 0.017-0.032c0.016-0.030 0.041-0.076 0.076-0.137 0.069-0.122 0.174-0.303 0.314-0.53 0.281-0.455 0.701-1.093 1.254-1.814l-1.587-1.218c-0.601 0.783-1.060 1.479-1.37 1.981-0.155 0.251-0.273 0.455-0.354 0.598-0.040 0.071-0.071 0.128-0.093 0.168-0.011 0.020-0.019 0.036-0.025 0.047-0.003 0.006-0.005 0.010-0.007 0.014-0.001 0.002-0.002 0.003-0.002 0.004s-0.001 0.001-0.001 0.001-0 0.001-0 0.001-0 0-0 0-0 0 0.887 0.461zM5.218 13.942c0.311-0.406 0.664-0.837 1.056-1.275l-1.49-1.334c-0.429 0.48-0.814 0.95-1.153 1.391l1.587 1.218zM17.217 24.263c-0.396 0.046-0.801 0.071-1.217 0.071v2c0.494 0 0.978-0.029 1.45-0.084l-0.233-1.986z"></path>
</symbol>
<symbol id="icon-ChevronUp" viewBox="0 0 32 32">
<path  d="M15.293 9.293c0.39-0.391 1.024-0.391 1.414 0l10 10c0.39 0.39 0.39 1.024 0 1.414s-1.024 0.39-1.414 0l-9.293-9.293-9.293 9.293c-0.391 0.39-1.024 0.39-1.414 0s-0.391-1.024 0-1.414l10-10z"></path>
</symbol>
<symbol id="icon-ChevronDown" viewBox="0 0 32 32">
<path  d="M5.293 11.293c0.391-0.39 1.024-0.39 1.414 0l9.293 9.293 9.293-9.293c0.39-0.39 1.024-0.39 1.414 0s0.39 1.024 0 1.414l-10 10c-0.39 0.39-1.024 0.39-1.414 0l-10-10c-0.391-0.39-0.391-1.024 0-1.414z"></path>
</symbol>
<symbol id="icon-add-account" viewBox="0 0 32 32">
<path d="M28 14h-1.333v-1.333c0-0.354-0.141-0.693-0.391-0.943s-0.589-0.391-0.943-0.391c-0.354 0-0.693 0.14-0.943 0.391s-0.391 0.589-0.391 0.943v1.333h-1.333c-0.354 0-0.693 0.141-0.943 0.391s-0.391 0.589-0.391 0.943c0 0.354 0.141 0.693 0.391 0.943s0.589 0.391 0.943 0.391h1.333v1.333c0 0.354 0.141 0.693 0.391 0.943s0.589 0.391 0.943 0.391c0.354 0 0.693-0.141 0.943-0.391s0.391-0.589 0.391-0.943v-1.333h1.333c0.354 0 0.693-0.141 0.943-0.391s0.391-0.589 0.391-0.943c0-0.354-0.141-0.693-0.391-0.943s-0.589-0.391-0.943-0.391zM17.733 16.293c0.711-0.616 1.282-1.377 1.673-2.233s0.593-1.786 0.593-2.727c0-1.768-0.702-3.464-1.953-4.714s-2.946-1.953-4.714-1.953-3.464 0.702-4.714 1.953c-1.25 1.25-1.953 2.946-1.953 4.714 0 0.941 0.202 1.871 0.593 2.727s0.962 1.617 1.673 2.233c-1.866 0.845-3.45 2.21-4.561 3.931s-1.703 3.726-1.705 5.775c0 0.354 0.14 0.693 0.391 0.943s0.589 0.391 0.943 0.391c0.354 0 0.693-0.141 0.943-0.391s0.391-0.589 0.391-0.943c0-2.122 0.843-4.157 2.343-5.657s3.535-2.343 5.657-2.343 4.157 0.843 5.657 2.343c1.5 1.5 2.343 3.535 2.343 5.657 0 0.354 0.141 0.693 0.391 0.943s0.589 0.391 0.943 0.391c0.354 0 0.693-0.141 0.943-0.391s0.391-0.589 0.391-0.943c-0.002-2.049-0.594-4.054-1.705-5.775s-2.695-3.086-4.561-3.931zM13.333 15.333c-0.791 0-1.564-0.235-2.222-0.674s-1.171-1.064-1.473-1.795c-0.303-0.731-0.382-1.535-0.228-2.311s0.535-1.489 1.095-2.048c0.559-0.559 1.272-0.94 2.048-1.095s1.58-0.075 2.311 0.228c0.731 0.303 1.356 0.815 1.795 1.473s0.674 1.431 0.674 2.222c0 1.061-0.421 2.078-1.172 2.828s-1.768 1.172-2.828 1.172z"></path>
</symbol>
</defs>
</svg>
